<svg xmlns="http://www.w3.org/2000/svg" viewBox="0 0 64 64" width="64" height="64">
  <rect width="64" height="64" rx="14" fill="#E60000"/>
  <circle cx="32" cy="28" r="13" fill="none" stroke="#fff" stroke-width="3.5"/>
  <path fill="#fff" d="M32 18c-5.5 0-10 4.5-10 10s4.5 10 10 10 10-4.5 10-10-4.5-10-10-10zm0 17c-3.9 0-7-3.1-7-7s3.1-7 7-7 7 3.1 7 7-3.1 7-7 7z"/>
  <path fill="#fff" d="M32 24c-2.2 0-4 1.8-4 4s1.8 4 4 4 4-1.8 4-4-1.8-4-4-4z"/>
  <text x="32" y="52" text-anchor="middle" font-family="Arial,sans-serif" font-weight="900" font-size="9" fill="#fff">Vodafone Cash</text>
</svg>
