<svg xmlns="http://www.w3.org/2000/svg" viewBox="0 0 64 64" width="64" height="64">
  <rect width="64" height="64" rx="14" fill="#25D366"/>
  <path fill="#fff" d="M32 13C21.5 13 13 21.5 13 32c0 3.4.9 6.6 2.5 9.4L13 51l9.9-2.6c2.7 1.4 5.7 2.1 9.1 2.1 10.5 0 19-8.5 19-19S42.5 13 32 13zm11.2 26.5c-.5 1.3-2.7 2.5-3.8 2.6-1 .1-2 .2-3.3-.2-.8-.2-1.8-.6-3.1-1.2-5.4-2.3-8.9-7.8-9.2-8.2-.3-.4-2.3-3-2.3-5.7s1.5-4 2-4.5c.5-.5 1-.6 1.4-.6h1c.3 0 .7 0 1.1.8.4 1 1.5 3.7 1.6 4 .1.2.2.5 0 .8-.2.3-.3.5-.6.8-.3.3-.6.6-.8 1-.2.3-.5.6-.2 1.1.3.6 1.3 2.2 2.8 3.6 1.9 1.7 3.6 2.3 4.1 2.5.5.2.8.2 1.1-.1.3-.3 1.3-1.5 1.7-2 .4-.5.7-.4 1.2-.2.5.2 3.1 1.5 3.6 1.7.5.2.8.4.9.7.2.3.2 1.2-.2 2.1z"/>
</svg>
